<svg xmlns="http://www.w3.org/2000/svg" width="80" height="80" viewBox="0 0 80 80" fill="none"><path d="M45.0781 45.875H41.5625V42.3594C41.5625 41.5 40.8594 40.7969 40 40.7969C39.1406 40.7969 38.4375 41.5 38.4375 42.3594V45.875H34.9219C34.0625 45.875 33.3594 46.5781 33.3594 47.4375C33.3594 48.2969 34.0625 49 34.9219 49H38.4375V52.5156C38.4375 53.375 39.1406 54.0781 40 54.0781C40.8594 54.0781 41.5625 53.375 41.5625 52.5156V49H45.0781C45.9375 49 46.6406 48.2969 46.6406 47.4375C46.6406 46.5781 45.9375 45.875 45.0781 45.875Z" fill="white"></path><path d="M65.2344 25.9063H60.4844C59.4375 22.6875 57.6406 19.75 55.2344 17.3438C51.1719 13.2813 45.7656 11.0312 40 11.0312C30.625 11.0312 22.375 17.0938 19.5156 25.9063H14.7656C12.1875 25.9063 10.0781 28.0156 10.0781 30.5938V64.2969C10.0781 66.875 12.1875 68.9844 14.7656 68.9844H65.2344C67.8125 68.9844 69.9219 66.875 69.9219 64.2969V30.5938C69.9219 28 67.8281 25.9063 65.2344 25.9063ZM40 14.1563C44.9219 14.1563 49.5469 16.0781 53.0156 19.5469C54.8281 21.3594 56.2344 23.5313 57.1562 25.9063H22.8281C25.5469 18.8906 32.3438 14.1563 40 14.1563ZM66.7969 64.2813C66.7969 65.1406 66.0938 65.8438 65.2344 65.8438H14.7656C13.9062 65.8438 13.2031 65.1406 13.2031 64.2813V30.5938C13.2031 29.7344 13.9062 29.0313 14.7656 29.0313H20.6875H65.2344C66.0938 29.0313 66.7969 29.7344 66.7969 30.5938V64.2813Z" fill="white"></path></svg>