<svg xmlns="http://www.w3.org/2000/svg" width="60" height="60" viewBox="0 0 60 60" fill="none"><path d="M33.9603 12.5987H31.2603V9.89871C31.2603 9.56753 30.9915 9.29871 30.6603 9.29871H28.8603C28.5291 9.29871 28.2603 9.56753 28.2603 9.89871V12.5987H25.5603C25.2291 12.5987 24.9603 12.8675 24.9603 13.1987V14.9987C24.9603 15.3299 25.2291 15.5987 25.5603 15.5987H28.2603V18.2987C28.2603 18.6299 28.5291 18.8987 28.8603 18.8987H30.6603C30.9915 18.8987 31.2603 18.6299 31.2603 18.2987V15.5987H33.9603C34.2915 15.5987 34.5603 15.3299 34.5603 14.9987V13.1987C34.5603 12.8675 34.2915 12.5987 33.9603 12.5987Z" fill="white"></path><path d="M20.7603 22.726V8.39983C20.7603 7.40596 21.5664 6.59983 22.5603 6.59983H36.9603C37.9542 6.59983 38.7603 7.40596 38.7603 8.39983V22.726H41.1603V8.39983C41.1603 6.08051 39.2796 4.19983 36.9603 4.19983H22.5603C20.241 4.19983 18.3603 6.08051 18.3603 8.39983V22.726H20.7603Z" fill="white"></path><path d="M51.7008 53.5009C52.6947 53.5009 53.5008 52.6947 53.5008 51.7009V25.7635C53.5008 24.7696 52.6947 23.9635 51.7008 23.9635H7.80001C6.80614 23.9635 6.00001 24.7696 6.00001 25.7635V51.7009C6.00001 52.6947 6.80614 53.5009 7.80001 53.5009H51.7008ZM51.7008 55.9009H7.80001C5.48069 55.9009 3.60001 54.0202 3.60001 51.7009V25.7635C3.60001 23.4442 5.48069 21.5635 7.80001 21.5635H51.7008C54.0201 21.5635 55.9008 23.4442 55.9008 25.7635V51.7009C55.9008 54.0202 54.0201 55.9009 51.7008 55.9009Z" fill="white"></path><path d="M35.5203 41.6885C35.5203 38.8167 33.1921 36.4889 30.3201 36.4889C27.4482 36.4889 25.1205 38.8166 25.1205 41.6885V53.4887H35.5203V41.6885ZM22.7205 55.8887V41.6885C22.7205 37.4911 26.1227 34.0889 30.3201 34.0889C34.5175 34.0889 37.9203 37.4912 37.9203 41.6885V55.8887H22.7205Z" fill="white"></path></svg>