<svg xmlns="http://www.w3.org/2000/svg" width="80" height="80" viewBox="0 0 80 80" fill="none"><path d="M45.0781 46.7188H41.5625V43.2031C41.5625 42.3438 40.8594 41.6406 40 41.6406C39.1406 41.6406 38.4375 42.3438 38.4375 43.2031V46.7188H34.9219C34.0625 46.7188 33.3594 47.4219 33.3594 48.2812C33.3594 49.1406 34.0625 49.8438 34.9219 49.8438H38.4375V53.3594C38.4375 54.2188 39.1406 54.9219 40 54.9219C40.8594 54.9219 41.5625 54.2188 41.5625 53.3594V49.8438H45.0781C45.9375 49.8438 46.6406 49.1406 46.6406 48.2812C46.6406 47.4219 45.9375 46.7188 45.0781 46.7188Z" fill="white"></path><path d="M59.9687 24.2188C60.8281 24.2188 61.5312 23.5156 61.5312 22.6562V14.7656C61.5312 12.1875 59.4219 10.0781 56.8438 10.0781H23.1562C20.5781 10.0781 18.4688 12.1875 18.4688 14.7656V22.6562C18.4688 23.5156 19.1719 24.2188 20.0312 24.2188H22.6563V28.4688H20.0312C19.1719 28.4688 18.4688 29.1719 18.4688 30.0312V65.2344C18.4688 67.8125 20.5781 69.9219 23.1562 69.9219H56.8594C59.4375 69.9219 61.5469 67.8125 61.5469 65.2344V30.0312C61.5469 29.1719 60.8438 28.4688 59.9844 28.4688H57.3438V24.2188H59.9687ZM21.5938 14.7656C21.5938 13.9062 22.2969 13.2031 23.1562 13.2031H56.8594C57.7188 13.2031 58.4219 13.9062 58.4219 14.7656V21.0938H55.7812H24.2188H21.5938V14.7656ZM58.4062 65.2344C58.4062 66.0938 57.7031 66.7969 56.8438 66.7969H23.1562C22.2969 66.7969 21.5938 66.0938 21.5938 65.2344V31.5938H24.2188H55.7812H58.4062V65.2344ZM54.2188 28.4688H25.7813V24.2188H54.2188V28.4688Z" fill="white"></path></svg>