<svg xmlns="http://www.w3.org/2000/svg" width="62" height="62" viewBox="0 0 62 62" fill="none"><path d="M10.3594 44.5625C11.6969 44.5625 12.7812 43.4782 12.7812 42.1406C12.7812 40.8031 11.6969 39.7188 10.3594 39.7188C9.02181 39.7188 7.9375 40.8031 7.9375 42.1406C7.9375 43.4782 9.02181 44.5625 10.3594 44.5625Z" stroke="white" stroke-width="2.5" stroke-linecap="round" stroke-linejoin="round"></path><mask id="path-2-outside-1_1_128" maskUnits="userSpaceOnUse" x="14" y="11" width="46" height="37" fill="black"><rect fill="white" x="14" y="11" width="46" height="37"></rect><path d="M18.554 26.7647L17.7442 27.1727C17.5863 27.2518 17.4455 27.3615 17.3297 27.4955C17.214 27.6294 17.1255 27.7851 17.0695 27.9535C17.0135 28.122 16.991 28.2999 17.0033 28.4771C17.0155 28.6543 17.0623 28.8274 17.141 28.9864L21.2367 37.2409C21.3587 37.4867 21.4034 37.7643 21.3648 38.0364L21.1545 39.5195C21.1274 39.7113 21.1415 39.9067 21.1958 40.0925C21.2501 40.2783 21.3434 40.4502 21.4694 40.5965C21.5954 40.7428 21.7511 40.8602 21.9259 40.9406C22.1008 41.021 22.2908 41.0627 22.483 41.0627C22.748 41.0625 23.0069 40.9832 23.2272 40.8348L25.4808 39.3205C25.7012 39.1723 25.9601 39.093 26.225 39.0925H27.4073C27.7631 39.0923 28.1043 38.9497 28.3558 38.6961C28.6073 38.4425 28.7486 38.0986 28.7486 37.7401V37.4916C28.7488 37.1332 28.8902 36.7895 29.1417 36.536C29.3932 36.2826 29.7343 36.1401 30.09 36.1399H36.9821C37.1583 36.1398 37.3328 36.1747 37.4955 36.2426C37.6583 36.3105 37.8062 36.4102 37.9306 36.5358L40.4746 39.0956V40.0833H42.3596C42.6588 40.0834 42.9495 40.1842 43.1854 40.3698C43.4213 40.5553 43.5889 40.815 43.6617 41.1075L44.1299 43.9796C44.2029 44.2702 44.3697 44.5281 44.6041 44.7128C44.8384 44.8976 45.127 44.9986 45.4245 45H47.4542C47.7034 44.9999 47.9477 44.9299 48.1597 44.7979C48.3717 44.6658 48.5431 44.4769 48.6546 44.2524L48.8891 43.779C49.0006 43.5545 49.172 43.3657 49.384 43.2338C49.596 43.1019 49.8403 43.0321 50.0894 43.0321H51.4111C51.8929 43.0321 52.337 41.7875 52.5761 41.3666L55.9878 35.349C56.0597 35.2229 56.1106 35.0858 56.1386 34.9432L56.974 30.7347C57.0374 30.4145 56.9839 30.0821 56.8232 29.7986L53.4205 23.8015C53.2562 23.5141 52.9926 23.2977 52.6801 23.1936L51.0507 22.6466C50.8077 22.5648 50.5929 22.4146 50.4319 22.2137C50.2709 22.0128 50.1703 21.7696 50.1422 21.5129L49.8293 18.6751C49.8045 18.4507 49.7244 18.2362 49.5962 18.0511C49.4681 17.866 49.296 17.7161 49.0957 17.6151L48.537 17.334C48.3141 17.2216 48.1266 17.049 47.9956 16.8353C47.8646 16.6217 47.7951 16.3756 47.795 16.1244V14H46.8186L44.528 17.8469C44.3541 18.1391 44.0772 18.3544 43.7526 18.4496C43.4279 18.5448 43.0796 18.513 42.7773 18.3605L41.0235 17.4769C40.7346 17.3313 40.5076 17.0857 40.3839 16.7851C40.2602 16.4845 40.2482 16.149 40.3502 15.8402L40.3705 15.7795C40.4376 15.5762 40.4559 15.3599 40.4238 15.1481C40.3917 14.9364 40.3101 14.7354 40.1859 14.5617C40.0616 14.3879 39.8981 14.2464 39.709 14.1487C39.5198 14.0511 39.3103 14.0001 39.0978 14H35.9311C35.6819 14.0001 35.4376 14.0701 35.2256 14.2021C35.0136 14.3342 34.8423 14.5231 34.7307 14.7476L33.6299 16.9663C33.4934 17.2413 33.268 17.4612 32.9909 17.5898C32.7138 17.7183 32.4014 17.7479 32.1054 17.6737L30.1292 17.176C29.9571 17.1324 29.7782 17.1238 29.6028 17.1505C29.4274 17.1772 29.2591 17.2388 29.1075 17.3317"></path></mask><path d="M19.5889 28.8187C20.7233 28.2471 21.1796 26.8642 20.608 25.7298C20.0364 24.5954 18.6534 24.1391 17.5191 24.7107L19.5889 28.8187ZM17.7442 27.1727L18.7744 29.2291L18.7791 29.2267L17.7442 27.1727ZM17.141 28.9864L15.0797 30.0066L15.0807 30.0086L17.141 28.9864ZM21.2367 37.2409L19.1763 38.2632L19.1766 38.2636L21.2367 37.2409ZM21.3648 38.0364L23.642 38.3594L23.6421 38.3593L21.3648 38.0364ZM21.1545 39.5195L18.8773 39.1965L18.8771 39.1976L21.1545 39.5195ZM22.483 41.0627L22.4827 43.3627L22.4847 43.3627L22.483 41.0627ZM23.2272 40.8348L21.9444 38.9257L21.9419 38.9274L23.2272 40.8348ZM25.4808 39.3205L26.7636 41.2295L26.7639 41.2294L25.4808 39.3205ZM26.225 39.0925V36.7925L26.2205 36.7925L26.225 39.0925ZM27.4073 39.0925V41.3925L27.4086 41.3925L27.4073 39.0925ZM28.7486 37.7401H26.4486H28.7486ZM28.7486 37.4916L26.4486 37.4903V37.4916H28.7486ZM30.09 36.1399V33.8399H30.0887L30.09 36.1399ZM36.9821 36.1399V38.4399L36.9839 38.4399L36.9821 36.1399ZM37.9306 36.5358L36.297 38.1548L36.2993 38.1571L37.9306 36.5358ZM40.4746 39.0956H42.7746C42.7746 38.488 42.5342 37.9052 42.106 37.4743L40.4746 39.0956ZM40.4746 40.0833H38.1746C38.1746 41.3536 39.2043 42.3833 40.4746 42.3833V40.0833ZM42.3596 40.0833L42.3603 37.7833H42.3596V40.0833ZM43.6617 41.1075L45.9317 40.7374C45.9216 40.6753 45.9089 40.6135 45.8937 40.5524L43.6617 41.1075ZM44.1299 43.9796L41.8599 44.3497C41.8703 44.4137 41.8835 44.4772 41.8993 44.5402L44.1299 43.9796ZM45.4245 45L45.4134 47.3H45.4245V45ZM47.4542 45V47.3H47.4552L47.4542 45ZM48.6546 44.2524L50.7146 45.2753L50.7156 45.2733L48.6546 44.2524ZM48.8891 43.779L46.8293 42.7555L46.8281 42.758L48.8891 43.779ZM50.0894 43.0321L50.0889 45.3321H50.0894V43.0321ZM52.5761 41.3666L54.5761 42.5023L54.5768 42.501L52.5761 41.3666ZM55.9878 35.349L53.9894 34.2104L53.987 34.2146L55.9878 35.349ZM56.1386 34.9432L53.8826 34.4954L53.8818 34.4996L56.1386 34.9432ZM56.974 30.7347L59.23 31.1825L59.2303 31.1812L56.974 30.7347ZM56.8232 29.7986L58.8244 28.6649L58.8237 28.6636L56.8232 29.7986ZM53.4205 23.8015L55.421 22.6664L55.4171 22.6597L53.4205 23.8015ZM52.6801 23.1936L51.948 25.374L51.9533 25.3758L52.6801 23.1936ZM51.0507 22.6466L50.3175 24.8266L50.3187 24.827L51.0507 22.6466ZM50.1422 21.5129L52.4285 21.2621L52.4283 21.2609L50.1422 21.5129ZM49.8293 18.6751L52.1154 18.423L52.1154 18.4224L49.8293 18.6751ZM49.0957 17.6151L50.1306 15.5612L50.1295 15.5606L49.0957 17.6151ZM48.537 17.334L47.5014 19.3877L47.5031 19.3886L48.537 17.334ZM47.795 16.1244H45.495V16.1253L47.795 16.1244ZM47.795 14H50.095C50.095 12.7297 49.0653 11.7 47.795 11.7V14ZM46.8186 14V11.7C46.008 11.7 45.2572 12.1268 44.8424 12.8233L46.8186 14ZM44.528 17.8469L42.5518 16.6702L42.5515 16.6708L44.528 17.8469ZM42.7773 18.3605L43.8131 16.3069L43.8122 16.3065L42.7773 18.3605ZM41.0235 17.4769L42.0584 15.4229L42.0583 15.4228L41.0235 17.4769ZM40.3502 15.8402L38.1692 15.1098L38.1661 15.1192L40.3502 15.8402ZM40.3705 15.7795L42.5515 16.5099L42.5546 16.5006L40.3705 15.7795ZM39.0978 14L39.0991 11.7H39.0978V14ZM35.9311 14V11.7L35.9301 11.7L35.9311 14ZM34.7307 14.7476L32.6707 13.7247L32.6704 13.7254L34.7307 14.7476ZM33.6299 16.9663L35.6901 17.9888L35.6902 17.9886L33.6299 16.9663ZM32.1054 17.6737L31.5437 19.904L31.5457 19.9045L32.1054 17.6737ZM30.1292 17.176L29.5646 19.4056L29.5675 19.4063L30.1292 17.176ZM27.9055 15.3708C26.8225 16.0347 26.4827 17.4507 27.1466 18.5337C27.8104 19.6167 29.2265 19.9565 30.3095 19.2927L27.9055 15.3708ZM17.5191 24.7107L16.7093 25.1187L18.7791 29.2267L19.5889 28.8187L17.5191 24.7107ZM16.714 25.1164C16.2845 25.3315 15.9026 25.6292 15.5894 25.9917L19.0701 28.9992C18.9884 29.0937 18.8881 29.1721 18.7744 29.2291L16.714 25.1164ZM15.5894 25.9917C15.2762 26.3541 15.0379 26.7743 14.8871 27.2277L19.252 28.6794C19.2132 28.7959 19.1517 28.9047 19.0701 28.9992L15.5894 25.9917ZM14.8871 27.2277C14.7363 27.6811 14.6758 28.1596 14.7087 28.6359L19.2978 28.3183C19.3062 28.4402 19.2907 28.5629 19.252 28.6794L14.8871 27.2277ZM14.7087 28.6359C14.7417 29.1123 14.8676 29.5781 15.0797 30.0066L19.2024 27.9661C19.2571 28.0767 19.2893 28.1964 19.2978 28.3183L14.7087 28.6359ZM15.0807 30.0086L19.1763 38.2632L23.297 36.2186L19.2013 27.9641L15.0807 30.0086ZM19.1766 38.2636C19.0916 38.0925 19.0611 37.9008 19.0876 37.7135L23.6421 38.3593C23.7458 37.6277 23.6258 36.8809 23.2968 36.2182L19.1766 38.2636ZM19.0876 37.7134L18.8773 39.1965L23.4317 39.8425L23.642 38.3594L19.0876 37.7134ZM18.8771 39.1976C18.8043 39.713 18.8421 40.2382 18.9882 40.738L23.4034 39.447C23.4408 39.5752 23.4505 39.7096 23.4318 39.8414L18.8771 39.1976ZM18.9882 40.738C19.1344 41.2379 19.3857 41.7015 19.7264 42.0971L23.2124 39.0959C23.3011 39.1989 23.3659 39.3188 23.4034 39.447L18.9882 40.738ZM19.7264 42.0971C20.067 42.4928 20.4891 42.8114 20.9649 43.0302L22.887 38.851C23.013 38.909 23.1237 38.9929 23.2124 39.0959L19.7264 42.0971ZM20.9649 43.0302C21.4407 43.249 21.9584 43.3626 22.4827 43.3627L22.4833 38.7627C22.6232 38.7627 22.7609 38.793 22.887 38.851L20.9649 43.0302ZM22.4847 43.3627C23.2082 43.3622 23.9139 43.1455 24.5125 42.7421L21.9419 38.9274C22.1 38.8209 22.2877 38.7628 22.4813 38.7627L22.4847 43.3627ZM24.5099 42.7438L26.7636 41.2295L24.1981 37.4114L21.9444 38.9257L24.5099 42.7438ZM26.7639 41.2294C26.6072 41.3347 26.4213 41.3921 26.2295 41.3925L26.2205 36.7925C25.4989 36.7939 24.7953 37.01 24.1978 37.4116L26.7639 41.2294ZM26.225 41.3925H27.4073V36.7925H26.225V41.3925ZM27.4086 41.3925C28.3799 41.392 29.3076 41.0026 29.9888 40.3158L26.7228 37.0765C26.9009 36.8969 27.1463 36.7927 27.406 36.7925L27.4086 41.3925ZM29.9888 40.3158C30.6694 39.6295 31.0486 38.7027 31.0486 37.7401H26.4486C26.4486 37.4945 26.5452 37.2555 26.7228 37.0765L29.9888 40.3158ZM31.0486 37.7401V37.4916H26.4486V37.7401H31.0486ZM31.0486 37.4929C31.0485 37.7383 30.9518 37.9772 30.7743 38.1561L27.5091 34.916C26.8286 35.6018 26.4492 36.528 26.4486 37.4903L31.0486 37.4929ZM30.7743 38.1561C30.5962 38.3356 30.3508 38.4398 30.0913 38.4399L30.0887 33.8399C29.1177 33.8405 28.1903 34.2296 27.5091 34.916L30.7743 38.1561ZM30.09 38.4399H36.9821V33.8399H30.09V38.4399ZM36.9839 38.4399C36.855 38.44 36.7278 38.4145 36.6097 38.3652L38.3814 34.1201C37.9377 33.9349 37.4616 33.8396 36.9804 33.8399L36.9839 38.4399ZM36.6097 38.3652C36.4916 38.3159 36.3855 38.2441 36.297 38.1548L39.5643 34.9168C39.2268 34.5762 38.825 34.3052 38.3814 34.1201L36.6097 38.3652ZM36.2993 38.1571L38.8432 40.7169L42.106 37.4743L39.562 34.9145L36.2993 38.1571ZM38.1746 39.0956V40.0833H42.7746V39.0956H38.1746ZM40.4746 42.3833H42.3596V37.7833H40.4746V42.3833ZM42.3588 42.3833C42.1409 42.3832 41.9314 42.3097 41.7634 42.1776L44.6073 38.562C43.9675 38.0588 43.1767 37.7836 42.3603 37.7833L42.3588 42.3833ZM41.7634 42.1776C41.5958 42.0457 41.4797 41.8638 41.4297 41.6627L45.8937 40.5524C45.6982 39.7662 45.2468 39.065 44.6073 38.562L41.7634 42.1776ZM41.3917 41.4776L41.8599 44.3497L46.3999 43.6095L45.9317 40.7374L41.3917 41.4776ZM41.8993 44.5402C42.0956 45.3215 42.5449 46.0183 43.1803 46.5192L46.0279 42.9065C46.1946 43.038 46.3103 43.2189 46.3606 43.419L41.8993 44.5402ZM43.1803 46.5192C43.816 47.0203 44.6015 47.2961 45.4134 47.3L45.4356 42.7C45.6525 42.7011 45.8608 42.7748 46.0279 42.9065L43.1803 46.5192ZM45.4245 47.3H47.4542V42.7H45.4245V47.3ZM47.4552 47.3C48.1349 47.2997 48.7999 47.1088 49.3757 46.7501L46.9437 42.8456C47.0955 42.7511 47.272 42.7001 47.4533 42.7L47.4552 47.3ZM49.3757 46.7501C49.9513 46.3916 50.4141 45.8803 50.7146 45.2753L46.5946 43.2294C46.672 43.0736 46.7921 42.94 46.9437 42.8456L49.3757 46.7501ZM50.7156 45.2733L50.95 44.7999L46.8281 42.758L46.5936 43.2314L50.7156 45.2733ZM50.9488 44.8025C50.8713 44.9585 50.7509 45.0921 50.5991 45.1866L48.1689 41.281C47.5931 41.6393 47.13 42.1505 46.8293 42.7555L50.9488 44.8025ZM50.5991 45.1866C50.4471 45.2812 50.2704 45.3321 50.0889 45.3321L50.0899 40.7321C49.4101 40.732 48.7449 40.9226 48.1689 41.281L50.5991 45.1866ZM50.0894 45.3321H51.4111V40.7321H50.0894V45.3321ZM51.4111 45.3321C52.5257 45.3321 53.2212 44.6435 53.4573 44.3863C53.7547 44.0622 53.9669 43.7062 54.0975 43.4701C54.2383 43.2153 54.3598 42.9586 54.442 42.7839C54.488 42.6861 54.5186 42.6205 54.5475 42.5608C54.5778 42.4983 54.5845 42.4875 54.5761 42.5023L50.576 40.2309C50.5079 40.3509 50.4484 40.4711 50.4068 40.5573C50.3637 40.6462 50.3167 40.7468 50.2799 40.825C50.1966 41.002 50.1321 41.1354 50.0718 41.2443C50.0012 41.372 49.9972 41.3534 50.0683 41.2759C50.1083 41.2323 50.2216 41.1152 50.4158 41C50.6186 40.8796 50.9613 40.7321 51.4111 40.7321V45.3321ZM54.5768 42.501L57.9886 36.4833L53.987 34.2146L50.5753 40.2322L54.5768 42.501ZM57.9863 36.4875C58.1814 36.1449 58.3195 35.7732 58.3954 35.3869L53.8818 34.4996C53.9017 34.3985 53.9379 34.3008 53.9894 34.2104L57.9863 36.4875ZM58.3946 35.3911L59.23 31.1825L54.7181 30.2869L53.8826 34.4954L58.3946 35.3911ZM59.2303 31.1812C59.4004 30.3217 59.257 29.4285 58.8244 28.6649L54.8221 30.9323C54.7107 30.7357 54.6744 30.5073 54.7178 30.2881L59.2303 31.1812ZM58.8237 28.6636L55.4209 22.6664L51.4201 24.9365L54.8228 30.9336L58.8237 28.6636ZM55.4171 22.6597C54.9735 21.8839 54.2592 21.2954 53.4069 21.0115L51.9533 25.3758C51.726 25.3001 51.5389 25.1443 51.4239 24.9432L55.4171 22.6597ZM53.4122 21.0132L51.7828 20.4662L50.3187 24.827L51.948 25.374L53.4122 21.0132ZM51.784 20.4666C51.9602 20.5258 52.1133 20.6339 52.2266 20.7753L48.6372 23.6521C49.0725 24.1953 49.6551 24.6038 50.3175 24.8266L51.784 20.4666ZM52.2266 20.7753C52.3398 20.9166 52.4091 21.0856 52.4285 21.2621L47.8559 21.7638C47.9316 22.4536 48.2019 23.109 48.6372 23.6521L52.2266 20.7753ZM52.4283 21.2609L52.1154 18.423L47.5431 18.9271L47.856 21.765L52.4283 21.2609ZM52.1154 18.4224C52.0487 17.8196 51.8333 17.2419 51.4874 16.7421L47.705 19.3601C47.6154 19.2306 47.5602 19.0819 47.5432 18.9278L52.1154 18.4224ZM51.4874 16.7421C51.1414 16.2422 50.6754 15.8357 50.1306 15.5612L48.0607 19.6691C47.9166 19.5965 47.7948 19.4897 47.705 19.3601L51.4874 16.7421ZM50.1295 15.5606L49.5708 15.2795L47.5031 19.3886L48.0618 19.6697L50.1295 15.5606ZM49.5725 15.2804C49.7327 15.3611 49.8649 15.4839 49.9562 15.6328L46.035 18.0379C46.3884 18.614 46.8955 19.0822 47.5014 19.3877L49.5725 15.2804ZM49.9562 15.6328C50.0474 15.7816 50.095 15.9514 50.095 16.1235L45.495 16.1253C45.4953 16.7997 45.6817 17.4619 46.035 18.0379L49.9562 15.6328ZM50.095 16.1244V14H45.495V16.1244H50.095ZM47.795 11.7H46.8186V16.3H47.795V11.7ZM44.8424 12.8233L42.5518 16.6702L46.5042 19.0236L48.7948 15.1767L44.8424 12.8233ZM42.5515 16.6708C42.6729 16.4667 42.8693 16.3118 43.1051 16.2426L44.4 20.6566C45.2851 20.3969 46.0354 19.8115 46.5046 19.023L42.5515 16.6708ZM43.1051 16.2426C43.3413 16.1733 43.5947 16.1968 43.8131 16.3069L41.7415 20.4141C42.5645 20.8292 43.5146 20.9163 44.4 20.6566L43.1051 16.2426ZM43.8122 16.3065L42.0584 15.4229L39.9886 19.5309L41.7423 20.4145L43.8122 16.3065ZM42.0583 15.4228C42.2662 15.5276 42.4253 15.702 42.5109 15.9101L38.2569 17.6602C38.5898 18.4695 39.2031 19.1351 39.9886 19.5309L42.0583 15.4228ZM42.5109 15.9101C42.5964 16.1178 42.6045 16.3485 42.5342 16.5613L38.1661 15.1192C37.892 15.9496 37.924 16.8512 38.2569 17.6602L42.5109 15.9101ZM42.5311 16.5707L42.5515 16.5099L38.1896 15.049L38.1693 15.1098L42.5311 16.5707ZM42.5546 16.5006C42.7351 15.9539 42.7841 15.3722 42.6978 14.8033L38.1498 15.493C38.1277 15.3475 38.1402 15.1986 38.1865 15.0583L42.5546 16.5006ZM42.6978 14.8033C42.6115 14.2343 42.3922 13.6928 42.0566 13.2236L38.3151 15.8997C38.2281 15.778 38.1719 15.6386 38.1498 15.493L42.6978 14.8033ZM42.0566 13.2236C41.721 12.7544 41.2783 12.3705 40.764 12.105L38.654 16.1925C38.518 16.1223 38.4022 16.0214 38.3151 15.8997L42.0566 13.2236ZM40.764 12.105C40.2496 11.8394 39.6789 11.7003 39.0991 11.7L39.0966 16.3C38.9418 16.2999 38.7901 16.2628 38.654 16.1925L40.764 12.105ZM39.0978 11.7H35.9311V16.3H39.0978V11.7ZM35.9301 11.7C35.2504 11.7003 34.5854 11.8912 34.0096 12.2499L36.4416 16.1544C36.2898 16.2489 36.1133 16.2999 35.932 16.3L35.9301 11.7ZM34.0096 12.2499C33.434 12.6084 32.9712 13.1197 32.6707 13.7247L36.7907 15.7706C36.7134 15.9264 36.5932 16.06 36.4416 16.1544L34.0096 12.2499ZM32.6704 13.7254L31.5696 15.944L35.6902 17.9886L36.7911 15.7699L32.6704 13.7254ZM31.5697 15.9437C31.6645 15.7527 31.8231 15.5961 32.0229 15.5034L33.9589 19.6761C34.713 19.3262 35.3223 18.7298 35.6901 17.9888L31.5697 15.9437ZM32.0229 15.5034C32.2229 15.4106 32.4498 15.3888 32.6651 15.4428L31.5457 19.9045C32.353 20.1071 33.2046 20.0261 33.9589 19.6761L32.0229 15.5034ZM32.667 15.4433L30.6908 14.9456L29.5675 19.4063L31.5437 19.904L32.667 15.4433ZM30.6937 14.9463C30.224 14.8274 29.7353 14.8037 29.2562 14.8768L29.9495 19.4242C29.8211 19.4438 29.6902 19.4374 29.5646 19.4056L30.6937 14.9463ZM29.2562 14.8768C28.7771 14.9498 28.318 15.118 27.9055 15.3708L30.3095 19.2927C30.2002 19.3597 30.0778 19.4047 29.9495 19.4242L29.2562 14.8768Z" fill="white" mask="url(#path-2-outside-1_1_128)"></path><path d="M25.1231 51.3981C25.6951 51.3981 26.1587 50.9344 26.1587 50.3625C26.1587 49.7906 25.6951 49.3269 25.1231 49.3269C24.5512 49.3269 24.0875 49.7906 24.0875 50.3625C24.0875 50.9344 24.5512 51.3981 25.1231 51.3981Z" fill="white"></path><path d="M36.0312 48.4375V50.375" stroke="white" stroke-width="2" stroke-linecap="round" stroke-linejoin="round"></path><path d="M36.0312 54.25V56.1875" stroke="white" stroke-width="2" stroke-linecap="round" stroke-linejoin="round"></path><path d="M32.1562 52.3125H34.0938" stroke="white" stroke-width="2" stroke-linecap="round" stroke-linejoin="round"></path><path d="M37.9688 52.3125H39.9062" stroke="white" stroke-width="2" stroke-linecap="round" stroke-linejoin="round"></path><path d="M49.6906 52.3125H53.3719C53.4837 52.3124 53.5938 52.3409 53.6915 52.3954C53.7892 52.4498 53.8714 52.5283 53.9303 52.6234C53.9891 52.7186 54.0226 52.8272 54.0276 52.9389C54.0327 53.0507 54.009 53.1619 53.9589 53.2619L52.5 57.1563L49.0997 53.2619C49.0495 53.1616 49.0258 53.05 49.031 52.938C49.0362 52.8259 49.0701 52.717 49.1294 52.6218C49.1887 52.5265 49.2714 52.4481 49.3697 52.3939C49.4679 52.3398 49.5784 52.3118 49.6906 52.3125Z" stroke="white" stroke-width="2" stroke-linecap="round" stroke-linejoin="round"></path><path d="M21.2878 4.15967C19.2733 4.18444 17.351 5.00822 15.9437 6.44989C14.5364 7.89156 13.7592 9.83311 13.7829 11.8477C13.7829 16.0937 21.2878 26.1251 21.2878 26.1251C21.2878 26.1251 28.7928 16.0937 28.7928 11.8477C28.8168 9.83303 28.0397 7.89134 26.6323 6.44961C25.2249 5.00788 23.3025 4.18419 21.2878 4.15967ZM21.2878 15.7391C20.5142 15.7582 19.7523 15.5462 19.0997 15.1302C18.4471 14.7142 17.9333 14.1131 17.624 13.4037C17.3146 12.6943 17.2238 11.9088 17.363 11.1475C17.5023 10.3862 17.8653 9.68367 18.4058 9.12971C18.9462 8.57574 19.6396 8.19546 20.3972 8.03744C21.1548 7.87942 21.9423 7.95084 22.6592 8.24257C23.376 8.5343 23.9896 9.0331 24.4216 9.67524C24.8536 10.3174 25.0843 11.0737 25.0844 11.8477C25.0965 12.867 24.7035 13.8495 23.9916 14.5792C23.2797 15.3089 22.3072 15.7261 21.2878 15.7391Z" stroke="white" stroke-width="2" stroke-linecap="round" stroke-linejoin="round"></path><path d="M48.5 25C47.0237 25.0192 45.6151 25.6567 44.5838 26.7725C43.5525 27.8883 42.983 29.3909 43.0004 30.9501C43.0004 34.2363 48.5 42 48.5 42C48.5 42 53.9996 34.2363 53.9996 30.9501C54.0172 29.3909 53.4477 27.8881 52.4164 26.7723C51.3851 25.6565 49.9763 25.019 48.5 25ZM48.5 33.9618C47.933 33.9766 47.3748 33.8125 46.8965 33.4906C46.4183 33.1686 46.0418 32.7034 45.8151 32.1544C45.5884 31.6053 45.5218 30.9974 45.6239 30.4082C45.7259 29.819 45.992 29.2753 46.388 28.8465C46.7841 28.4178 47.2921 28.1235 47.8473 28.0012C48.4025 27.8789 48.9796 27.9342 49.5049 28.1599C50.0302 28.3857 50.4799 28.7718 50.7964 29.2687C51.113 29.7657 51.2821 30.3511 51.2821 30.9501C51.291 31.739 51.003 32.4994 50.4813 33.0641C49.9596 33.6289 49.247 33.9518 48.5 33.9618Z" stroke="white" stroke-width="1.5" stroke-linecap="round" stroke-linejoin="round"></path></svg>