<svg xmlns="http://www.w3.org/2000/svg" width="34" height="78" viewBox="0 0 34 78" fill="none"><path d="M32 16.3052C33.1 16.3052 34 15.388 34 14.267V6.11445C34 2.7515 31.3 0 28 0H6C2.7 0 0 2.7515 0 6.11445V14.267C0 15.388 0.9 16.3052 2 16.3052H7.4V24.0909H2C0.9 24.0909 0 25.0081 0 26.1291V60.6757C0 70.2346 7.62 78 17 78C26.38 78 34 70.2346 34 60.6757V26.1291C34 25.0081 33.1 24.0909 32 24.0909H25.8V16.3052H32ZM4 6.11445C4 4.99347 4.9 4.0763 6 4.0763H28C29.1 4.0763 30 4.99347 30 6.11445V12.2289H4V6.11445ZM17 73.9441C9.84 73.9441 4 67.9927 4 60.6961V52.8492H30V60.6961C30 67.9927 24.16 73.9441 17 73.9441ZM30 48.7525H4V28.1672H30V48.7525ZM21.8 24.0909H11.4V16.3052H21.8V24.0909Z" fill="white"></path></svg>